<?xml version="1.0" encoding="UTF-8" standalone="no"?>
<svg
   xmlns:dc="http://purl.org/dc/elements/1.1/"
   xmlns:cc="http://creativecommons.org/ns#"
   xmlns:rdf="http://www.w3.org/1999/02/22-rdf-syntax-ns#"
   xmlns:svg="http://www.w3.org/2000/svg"
   xmlns="http://www.w3.org/2000/svg"
   xmlns:sodipodi="http://sodipodi.sourceforge.net/DTD/sodipodi-0.dtd"
   xmlns:inkscape="http://www.inkscape.org/namespaces/inkscape"
   viewBox="0 0 24 24"
   id="svg2"
   version="1.1"
   inkscape:version="0.91 r13725"
   sodipodi:docname="strikethrough_eye.svg">
  <metadata
     id="metadata10">
    <rdf:RDF>
      <cc:Work
         rdf:about="">
        <dc:format>image/svg+xml</dc:format>
        <dc:type
           rdf:resource="http://purl.org/dc/dcmitype/StillImage" />
        <dc:title />
      </cc:Work>
    </rdf:RDF>
  </metadata>
  <defs
     id="defs8" />
  <sodipodi:namedview
     pagecolor="#a5a5a5"
     bordercolor="#666666"
     borderopacity="1"
     objecttolerance="10"
     gridtolerance="10"
     guidetolerance="10"
     inkscape:pageopacity="0"
     inkscape:pageshadow="2"
     inkscape:window-width="1920"
     inkscape:window-height="1030"
     id="namedview6"
     showgrid="false"
     showguides="false"
     inkscape:guide-bbox="true"
     inkscape:object-paths="true"
     inkscape:snap-intersection-paths="true"
     inkscape:snap-smooth-nodes="true"
     inkscape:object-nodes="true"
     inkscape:snap-midpoints="true"
     inkscape:zoom="1.7383042"
     inkscape:cx="-97.723047"
     inkscape:cy="41.634972"
     inkscape:window-x="1280"
     inkscape:window-y="25"
     inkscape:window-maximized="1"
     inkscape:current-layer="svg2">
    <sodipodi:guide
       position="0,0"
       orientation="1,0"
       id="guide7311"
       inkscape:label=""
       inkscape:color="rgb(0,0,255)" />
    <sodipodi:guide
       position="24,24"
       orientation="1,0"
       id="guide7313"
       inkscape:label=""
       inkscape:color="rgb(0,0,255)" />
    <sodipodi:guide
       position="24,24"
       orientation="0,1"
       id="guide7315" />
    <sodipodi:guide
       position="0,0"
       orientation="0,1"
       id="guide7317" />
    <sodipodi:guide
       position="21,21"
       orientation="1,0"
       id="guide7319"
       inkscape:label=""
       inkscape:color="rgb(0,0,255)" />
    <sodipodi:guide
       position="21,21"
       orientation="0,1"
       id="guide7321" />
    <sodipodi:guide
       position="3,3"
       orientation="0,1"
       id="guide7323"
       inkscape:label=""
       inkscape:color="rgb(0,0,255)" />
    <sodipodi:guide
       position="3,3"
       orientation="1,0"
       id="guide7325" />
    <sodipodi:guide
       position="4,4"
       orientation="1,0"
       id="guide7327"
       inkscape:label=""
       inkscape:color="rgb(0,0,255)" />
    <sodipodi:guide
       position="5,3"
       orientation="1,0"
       id="guide7329"
       inkscape:label=""
       inkscape:color="rgb(0,0,255)" />
    <sodipodi:guide
       position="21,19"
       orientation="0,1"
       id="guide7333"
       inkscape:label=""
       inkscape:color="rgb(0,0,255)" />
    <sodipodi:guide
       position="20,20"
       orientation="0,1"
       id="guide7335"
       inkscape:label=""
       inkscape:color="rgb(0,0,255)" />
  </sodipodi:namedview>
  <path
     style="fill:#ffffff;fill-rule:evenodd;stroke:none;stroke-width:1px;stroke-linecap:butt;stroke-linejoin:miter;stroke-opacity:1;fill-opacity:1"
     d="M 20 4 L 17.689453 6.3105469 C 16.09522 5.5385275 14.204842 5 12 5 C 4 5 0 12 0 12 C 0 12 2.1136079 15.66223 6.3144531 17.685547 L 4 20 L 5 21 L 7.7226562 18.277344 L 8.8828125 17.117188 L 10.357422 15.642578 L 15.642578 10.357422 L 17.119141 8.8808594 L 18.982422 7.0175781 L 21 5 L 20 4 z M 12 6 A 6 6 0 0 1 16.236328 7.7636719 L 14.822266 9.1777344 A 4 4 0 0 0 12 8 A 4 4 0 0 0 9.7792969 8.6757812 C 10.618798 9.3446083 11.361908 11.486562 11.625 12.375 L 11.464844 12.535156 C 10.967412 12.050187 9.8416128 11.03422 8.4023438 10.263672 A 4 4 0 0 0 8 12 A 4 4 0 0 0 9.1757812 14.824219 L 7.7675781 16.232422 A 6 6 0 0 1 6 12 A 6 6 0 0 1 12 6 z M 20.173828 7.8261719 L 17.738281 10.261719 A 6 6 0 0 1 18 12 A 6 6 0 0 1 12 18 A 6 6 0 0 1 10.259766 17.740234 L 9.2851562 18.714844 C 10.133072 18.893667 11.035898 19 12 19 C 20 19 24 12 24 12 C 24 12 22.723815 9.7692324 20.173828 7.8261719 z M 16 12 L 12 16 A 4 4 0 0 0 16 12 z "
     id="path7358" />
</svg>
