<?xml version="1.0" encoding="UTF-8" standalone="no"?>
<!-- Created with Inkscape (http://www.inkscape.org/) -->

<svg
   xmlns:dc="http://purl.org/dc/elements/1.1/"
   xmlns:cc="http://creativecommons.org/ns#"
   xmlns:rdf="http://www.w3.org/1999/02/22-rdf-syntax-ns#"
   xmlns:svg="http://www.w3.org/2000/svg"
   xmlns="http://www.w3.org/2000/svg"
   xmlns:sodipodi="http://sodipodi.sourceforge.net/DTD/sodipodi-0.dtd"
   xmlns:inkscape="http://www.inkscape.org/namespaces/inkscape"
   width="24"
   height="24"
   viewBox="0 0 24 24"
   id="svg2"
   version="1.1"
   inkscape:version="0.91 r13725"
   sodipodi:docname="gear_icon.svg">
  <defs
     id="defs4" />
  <sodipodi:namedview
     id="base"
     pagecolor="#767676"
     bordercolor="#666666"
     borderopacity="1.0"
     inkscape:pageopacity="0"
     inkscape:pageshadow="2"
     inkscape:zoom="22.4"
     inkscape:cx="12.699491"
     inkscape:cy="9.93278"
     inkscape:document-units="px"
     inkscape:current-layer="layer1"
     showgrid="false"
     units="px"
     showguides="true"
     inkscape:guide-bbox="true"
     inkscape:window-width="1920"
     inkscape:window-height="1030"
     inkscape:window-x="1280"
     inkscape:window-y="25"
     inkscape:window-maximized="1"
     inkscape:object-paths="true"
     inkscape:snap-intersection-paths="true"
     inkscape:object-nodes="true"
     inkscape:snap-smooth-nodes="true"
     inkscape:snap-midpoints="true">
    <sodipodi:guide
       position="0,0"
       orientation="1,0"
       id="guide7293"
       inkscape:label=""
       inkscape:color="rgb(0,0,255)" />
    <sodipodi:guide
       position="24,24"
       orientation="1,0"
       id="guide7295"
       inkscape:label=""
       inkscape:color="rgb(0,0,255)" />
    <sodipodi:guide
       position="24,24"
       orientation="0,1"
       id="guide7297" />
    <sodipodi:guide
       position="0,0"
       orientation="0,1"
       id="guide7299" />
    <sodipodi:guide
       position="12,12"
       orientation="1,0"
       id="guide7301"
       inkscape:label=""
       inkscape:color="rgb(0,0,255)" />
    <sodipodi:guide
       position="12,12"
       orientation="0,1"
       id="guide7303" />
  </sodipodi:namedview>
  <metadata
     id="metadata7">
    <rdf:RDF>
      <cc:Work
         rdf:about="">
        <dc:format>image/svg+xml</dc:format>
        <dc:type
           rdf:resource="http://purl.org/dc/dcmitype/StillImage" />
        <dc:title></dc:title>
      </cc:Work>
    </rdf:RDF>
  </metadata>
  <g
     inkscape:label="Layer 1"
     inkscape:groupmode="layer"
     id="layer1"
     transform="translate(0,-1028.3622)">
    <path
       style="color:#000000;font-style:normal;font-variant:normal;font-weight:normal;font-stretch:normal;font-size:medium;line-height:normal;font-family:sans-serif;text-indent:0;text-align:start;text-decoration:none;text-decoration-line:none;text-decoration-style:solid;text-decoration-color:#000000;letter-spacing:normal;word-spacing:normal;text-transform:none;direction:ltr;block-progression:tb;writing-mode:lr-tb;baseline-shift:baseline;text-anchor:start;white-space:normal;clip-rule:nonzero;display:inline;overflow:visible;visibility:visible;opacity:1;isolation:auto;mix-blend-mode:normal;color-interpolation:sRGB;color-interpolation-filters:linearRGB;solid-color:#000000;solid-opacity:1;fill:#ffffff;fill-opacity:1;fill-rule:nonzero;stroke:none;stroke-width:3.46499991;stroke-linecap:square;stroke-linejoin:miter;stroke-miterlimit:0;stroke-dasharray:none;stroke-dashoffset:0;stroke-opacity:1;color-rendering:auto;image-rendering:auto;shape-rendering:auto;text-rendering:auto;enable-background:accumulate"
       d="M 10.298828 1.2832031 L 9.7070312 4.3945312 A 7.9505129 7.9505129 0 0 0 8.2421875 5.0019531 L 5.6230469 3.2167969 L 3.2167969 5.6230469 L 4.9980469 8.2382812 A 7.9505129 7.9505129 0 0 0 4.3886719 9.7089844 L 1.2832031 10.298828 L 1.2832031 13.701172 L 4.3945312 14.292969 A 7.9505129 7.9505129 0 0 0 5.0019531 15.757812 L 3.2167969 18.376953 L 5.6230469 20.783203 L 8.2382812 19.001953 A 7.9505129 7.9505129 0 0 0 9.7089844 19.611328 L 10.298828 22.716797 L 13.701172 22.716797 L 14.292969 19.605469 A 7.9505129 7.9505129 0 0 0 15.757812 18.998047 L 18.376953 20.783203 L 20.783203 18.376953 L 19.001953 15.761719 A 7.9505129 7.9505129 0 0 0 19.611328 14.291016 L 22.716797 13.701172 L 22.716797 10.298828 L 19.605469 9.7070312 A 7.9505129 7.9505129 0 0 0 18.998047 8.2421875 L 20.783203 5.6230469 L 18.376953 3.2167969 L 15.761719 4.9980469 A 7.9505129 7.9505129 0 0 0 14.291016 4.3886719 L 13.701172 1.2832031 L 10.298828 1.2832031 z M 12 8.0175781 A 3.9821429 3.9821429 0 0 1 15.982422 12 A 3.9821429 3.9821429 0 0 1 12 15.982422 A 3.9821429 3.9821429 0 0 1 8.0175781 12 A 3.9821429 3.9821429 0 0 1 12 8.0175781 z "
       transform="translate(0,1028.3622)"
       id="path7316" />
  </g>
</svg>
