<?xml version="1.0" encoding="UTF-8" standalone="no"?>
<!-- Created with Inkscape (http://www.inkscape.org/) -->

<svg
   xmlns:dc="http://purl.org/dc/elements/1.1/"
   xmlns:cc="http://creativecommons.org/ns#"
   xmlns:rdf="http://www.w3.org/1999/02/22-rdf-syntax-ns#"
   xmlns:svg="http://www.w3.org/2000/svg"
   xmlns="http://www.w3.org/2000/svg"
   xmlns:sodipodi="http://sodipodi.sourceforge.net/DTD/sodipodi-0.dtd"
   xmlns:inkscape="http://www.inkscape.org/namespaces/inkscape"
   width="16"
   height="16"
   viewBox="0 0 16 16"
   version="1.1"
   id="svg8"
   inkscape:version="0.92.2 2405546, 2018-03-11"
   sodipodi:docname="globe.svg">
  <defs
     id="defs2" />
  <sodipodi:namedview
     id="base"
     pagecolor="#c8c8c8"
     bordercolor="#666666"
     borderopacity="1.0"
     inkscape:pageopacity="0"
     inkscape:pageshadow="2"
     inkscape:zoom="32"
     inkscape:cx="7.1821899"
     inkscape:cy="5.7249513"
     inkscape:document-units="px"
     inkscape:current-layer="layer1"
     showgrid="false"
     units="px"
     scale-x="1"
     inkscape:window-width="2560"
     inkscape:window-height="1388"
     inkscape:window-x="1920"
     inkscape:window-y="23"
     inkscape:window-maximized="1"
     showguides="true"
     inkscape:guide-bbox="true"
     inkscape:snap-bbox="true"
     inkscape:bbox-paths="true"
     inkscape:bbox-nodes="true"
     inkscape:snap-bbox-edge-midpoints="true"
     inkscape:snap-bbox-midpoints="true"
     inkscape:snap-intersection-paths="true"
     inkscape:object-paths="true"
     inkscape:snap-smooth-nodes="true"
     inkscape:snap-midpoints="true"
     inkscape:snap-object-midpoints="true"
     inkscape:snap-center="true"
     inkscape:snap-others="false"
     inkscape:snap-nodes="true">
    <sodipodi:guide
       position="0,0"
       orientation="0,16"
       id="guide834"
       inkscape:locked="false" />
    <sodipodi:guide
       position="16,0"
       orientation="-16,0"
       id="guide836"
       inkscape:locked="false" />
    <sodipodi:guide
       position="16,16"
       orientation="0,-16"
       id="guide838"
       inkscape:locked="false" />
    <sodipodi:guide
       position="0,16"
       orientation="16,0"
       id="guide840"
       inkscape:locked="false" />
    <sodipodi:guide
       position="1,1"
       orientation="0,1"
       id="guide844"
       inkscape:locked="false"
       inkscape:label=""
       inkscape:color="rgb(0,0,255)" />
    <sodipodi:guide
       position="15,15"
       orientation="0,1"
       id="guide848"
       inkscape:locked="false"
       inkscape:label=""
       inkscape:color="rgb(0,0,255)" />
    <sodipodi:guide
       position="8,8"
       orientation="1,0"
       id="guide850"
       inkscape:locked="false"
       inkscape:label=""
       inkscape:color="rgb(0,0,255)" />
    <sodipodi:guide
       position="8,8"
       orientation="0,1"
       id="guide859"
       inkscape:locked="false" />
    <sodipodi:guide
       position="-1.5,8"
       orientation="1,0"
       id="guide877"
       inkscape:locked="false"
       inkscape:label=""
       inkscape:color="rgb(0,0,255)" />
    <sodipodi:guide
       position="17.5,8"
       orientation="1,0"
       id="guide879"
       inkscape:locked="false"
       inkscape:label=""
       inkscape:color="rgb(0,0,255)" />
    <sodipodi:guide
       position="6,8"
       orientation="1,0"
       id="guide883"
       inkscape:locked="false"
       inkscape:label=""
       inkscape:color="rgb(0,0,255)" />
    <sodipodi:guide
       position="10,8"
       orientation="1,0"
       id="guide885"
       inkscape:locked="false"
       inkscape:label=""
       inkscape:color="rgb(0,0,255)" />
    <sodipodi:guide
       position="8,3"
       orientation="0,1"
       id="guide891"
       inkscape:locked="false"
       inkscape:label=""
       inkscape:color="rgb(0,0,255)" />
    <sodipodi:guide
       position="4,8"
       orientation="1,0"
       id="guide911"
       inkscape:locked="false"
       inkscape:label=""
       inkscape:color="rgb(0,0,255)" />
    <sodipodi:guide
       position="12,8"
       orientation="1,0"
       id="guide913"
       inkscape:locked="false"
       inkscape:label=""
       inkscape:color="rgb(0,0,255)" />
    <sodipodi:guide
       position="12,5"
       orientation="0,1"
       id="guide919"
       inkscape:locked="false"
       inkscape:label=""
       inkscape:color="rgb(0,0,255)" />
    <sodipodi:guide
       position="3,8"
       orientation="1,0"
       id="guide923"
       inkscape:locked="false"
       inkscape:label=""
       inkscape:color="rgb(0,0,255)" />
    <sodipodi:guide
       position="13,8"
       orientation="1,0"
       id="guide925"
       inkscape:locked="false"
       inkscape:label=""
       inkscape:color="rgb(0,0,255)" />
    <sodipodi:guide
       position="8,11"
       orientation="0,1"
       id="guide927"
       inkscape:locked="false"
       inkscape:label=""
       inkscape:color="rgb(0,0,255)" />
    <sodipodi:guide
       position="8,13"
       orientation="0,1"
       id="guide929"
       inkscape:locked="false"
       inkscape:label=""
       inkscape:color="rgb(0,0,255)" />
  </sodipodi:namedview>
  <metadata
     id="metadata5">
    <rdf:RDF>
      <cc:Work
         rdf:about="">
        <dc:format>image/svg+xml</dc:format>
        <dc:type
           rdf:resource="http://purl.org/dc/dcmitype/StillImage" />
        <dc:title />
      </cc:Work>
    </rdf:RDF>
  </metadata>
  <g
     inkscape:label="Layer 1"
     inkscape:groupmode="layer"
     id="layer1"
     transform="translate(0,-292.76667)">
    <path
       d="M 8,-0.01171875 C 3.5832507,-0.01171875 -0.01171875,3.58325 -0.01171875,8 c 0,4.41675 3.59496945,8.009766 8.01171875,8.009766 4.416749,0 8.011719,-3.593016 8.011719,-8.009766 0,-4.41675 -3.59497,-8.01171875 -8.011719,-8.01171875 z M 7.3378906,1.34375 V 4.296875 C 6.5251571,4.2430872 5.8757698,4.1097583 5.3710938,3.9277344 5.8499301,2.5287434 6.3605116,1.6754089 6.4765625,1.4921875 6.7582161,1.4267582 7.043676,1.3724909 7.3378906,1.34375 Z m 1.3242188,0 C 8.956324,1.3724903 9.241784,1.4267586 9.5234375,1.4921875 9.6394885,1.6754089 10.15007,2.5287434 10.628906,3.9277344 10.12423,4.1097583 9.4748429,4.2430872 8.6621094,4.296875 Z M 4.6132812,2.234375 C 4.470804,2.5538077 4.3283316,2.9128622 4.1855469,3.3125 3.9240972,3.1148231 3.7870361,2.9765082 3.7070312,2.8691406 3.9897218,2.632516 4.2935618,2.4222041 4.6132812,2.234375 Z m 6.7734378,0 c 0.319719,0.1878291 0.623559,0.3981408 0.90625,0.6347656 -0.08,0.1073676 -0.217066,0.2456825 -0.478516,0.4433594 C 11.671668,2.9128622 11.529196,2.5538077 11.386719,2.234375 Z M 2.7890625,3.8046875 c 0.1974773,0.226431 0.4643597,0.4912134 0.84375,0.7441406 0.043707,0.029138 0.1058876,0.055112 0.1523437,0.083984 C 3.5757255,5.4490267 3.4287264,6.3575394 3.3769531,7.3378906 H 1.34375 C 1.4742742,6.0055256 1.9954008,4.7900271 2.7890625,3.8046875 Z m 10.4218755,0 c 0.793661,0.9853407 1.314788,2.2008377 1.445312,3.5332031 h -2.033203 c -0.05177,-0.9803512 -0.198773,-1.8888639 -0.408203,-2.7050781 0.04646,-0.028872 0.108637,-0.054847 0.152344,-0.083984 0.37939,-0.2529272 0.646272,-0.5177096 0.84375,-0.744141 z M 5.0039062,5.1933594 c 0.638817,0.22058 1.3946457,0.3938835 2.3339844,0.4472656 V 7.3378906 H 4.7011719 C 4.7460096,6.5727591 4.8484927,5.8499064 5.0039062,5.1933594 Z m 5.9921878,0 c 0.155413,0.656547 0.257896,1.3793997 0.302734,2.1445312 H 8.6621094 V 5.640625 C 9.601448,5.5872429 10.357277,5.4139394 10.996094,5.1933594 Z M 1.34375,8.6601562 h 2.0332031 c 0.051578,0.9806235 0.1988075,1.8887538 0.4082031,2.7050778 -0.046511,0.0289 -0.1085884,0.05482 -0.1523437,0.08399 -0.3793903,0.252927 -0.6462727,0.519665 -0.84375,0.746093 C 1.9947169,11.20942 1.4736543,9.9938511 1.34375,8.6601562 Z m 3.3574219,0 H 7.3378906 V 10.359375 C 6.3985545,10.412758 5.6427219,10.586059 5.0039062,10.806641 4.848297,10.149428 4.7458831,9.4263196 4.7011719,8.6601562 Z m 3.9609375,0 H 11.298828 C 11.254117,9.4263196 11.151703,10.149428 10.996094,10.806641 10.357278,10.586059 9.6014455,10.412758 8.6621094,10.359375 Z m 3.9609376,0 h 2.033203 c -0.129904,1.3336949 -0.650967,2.5492638 -1.445312,3.5351558 -0.197478,-0.226428 -0.46436,-0.493166 -0.84375,-0.746093 -0.04376,-0.02917 -0.105833,-0.05508 -0.152344,-0.08399 0.209395,-0.816324 0.356625,-1.7244543 0.408203,-2.7050778 z M 7.3378906,11.701172 V 14.65625 C 7.044319,14.627591 6.7595837,14.572982 6.4785156,14.507812 6.363916,14.327127 5.8508131,13.473339 5.3710938,12.072266 5.8757827,11.890235 6.5251275,11.754957 7.3378906,11.701172 Z m 1.3242188,0 c 0.8127631,0.05378 1.4621076,0.189063 1.9667966,0.371094 -0.479719,1.401073 -0.992822,2.254861 -1.1074216,2.435546 -0.2810681,0.06517 -0.5658034,0.119779 -0.859375,0.148438 z M 4.1855469,12.685547 C 4.3285235,13.085742 4.470597,13.445861 4.6132812,13.765625 4.2931438,13.577644 3.9880861,13.36775 3.7050781,13.130859 3.784797,13.023494 3.9223241,12.884503 4.1855469,12.685547 Z m 7.6289061,0 c 0.263223,0.198956 0.40075,0.337947 0.480469,0.445312 -0.283008,0.236891 -0.588066,0.446785 -0.908203,0.634766 0.142684,-0.319764 0.284758,-0.679883 0.427734,-1.080078 z"
       id="path857"
       transform="translate(0,292.76667)"
       inkscape:connector-curvature="0"
       style="fill:#ffffff;fill-opacity:1" />
  </g>
</svg>
