<?xml version="1.0" encoding="UTF-8" standalone="no"?>
<!-- Created with Inkscape (http://www.inkscape.org/) -->

<svg
   xmlns:dc="http://purl.org/dc/elements/1.1/"
   xmlns:cc="http://creativecommons.org/ns#"
   xmlns:rdf="http://www.w3.org/1999/02/22-rdf-syntax-ns#"
   xmlns:svg="http://www.w3.org/2000/svg"
   xmlns="http://www.w3.org/2000/svg"
   xmlns:sodipodi="http://sodipodi.sourceforge.net/DTD/sodipodi-0.dtd"
   xmlns:inkscape="http://www.inkscape.org/namespaces/inkscape"
   width="24"
   height="24"
   viewBox="0 0 24 24"
   id="svg2"
   version="1.1"
   inkscape:version="0.91 r13725"
   sodipodi:docname="categories_icon.svg">
  <defs
     id="defs4" />
  <sodipodi:namedview
     id="base"
     pagecolor="#9b9b9b"
     bordercolor="#666666"
     borderopacity="1.0"
     inkscape:pageopacity="0"
     inkscape:pageshadow="2"
     inkscape:zoom="16"
     inkscape:cx="1.1749948"
     inkscape:cy="14.107199"
     inkscape:document-units="px"
     inkscape:current-layer="layer1"
     showgrid="false"
     units="px"
     showguides="true"
     inkscape:guide-bbox="true"
     inkscape:window-width="1920"
     inkscape:window-height="1030"
     inkscape:window-x="1280"
     inkscape:window-y="25"
     inkscape:window-maximized="1"
     inkscape:object-paths="true"
     inkscape:snap-intersection-paths="false"
     inkscape:object-nodes="false"
     inkscape:snap-smooth-nodes="false"
     inkscape:snap-midpoints="false">
    <sodipodi:guide
       position="0,0"
       orientation="1,0"
       id="guide7293"
       inkscape:label=""
       inkscape:color="rgb(0,0,255)" />
    <sodipodi:guide
       position="0,0"
       orientation="0,1"
       id="guide7295" />
    <sodipodi:guide
       position="24,24"
       orientation="1,0"
       id="guide7297"
       inkscape:label=""
       inkscape:color="rgb(0,0,255)" />
    <sodipodi:guide
       position="24,24"
       orientation="0,1"
       id="guide7299" />
    <sodipodi:guide
       position="16,0"
       orientation="1,0"
       id="guide7470"
       inkscape:label=""
       inkscape:color="rgb(0,0,255)" />
    <sodipodi:guide
       position="24,8"
       orientation="0,1"
       id="guide7472"
       inkscape:label=""
       inkscape:color="rgb(0,0,255)" />
    <sodipodi:guide
       position="0,16"
       orientation="0,1"
       id="guide7474"
       inkscape:label=""
       inkscape:color="rgb(0,0,255)" />
    <sodipodi:guide
       position="8,24"
       orientation="1,0"
       id="guide7476"
       inkscape:label=""
       inkscape:color="rgb(0,0,255)" />
    <sodipodi:guide
       position="5,19"
       orientation="-0.70710678,0.70710678"
       id="guide7496"
       inkscape:label=""
       inkscape:color="rgb(0,0,255)" />
    <sodipodi:guide
       position="0,24"
       orientation="0.70710678,0.70710678"
       id="guide7498"
       inkscape:label=""
       inkscape:color="rgb(0,0,255)" />
  </sodipodi:namedview>
  <metadata
     id="metadata7">
    <rdf:RDF>
      <cc:Work
         rdf:about="">
        <dc:format>image/svg+xml</dc:format>
        <dc:type
           rdf:resource="http://purl.org/dc/dcmitype/StillImage" />
        <dc:title></dc:title>
      </cc:Work>
    </rdf:RDF>
  </metadata>
  <g
     inkscape:label="Layer 1"
     inkscape:groupmode="layer"
     id="layer1"
     transform="translate(0,-1028.3622)">
    <path
       style="fill:#ffffff;fill-opacity:1;fill-rule:evenodd;stroke:none;stroke-width:1px;stroke-linecap:butt;stroke-linejoin:miter;stroke-opacity:1"
       d="m 4.2830144,1028.4379 0,1.0508 5.3496098,0 12.7988268,12.7989 1.050781,-1.0489 -12.80078,-12.8008 -6.3984376,0 z"
       id="path7546"
       inkscape:connector-curvature="0" />
    <path
       style="fill:#ffffff;fill-opacity:1;fill-rule:evenodd;stroke:none;stroke-width:1px;stroke-linecap:butt;stroke-linejoin:miter;stroke-opacity:1"
       d="m 2.1415072,1030.5795 0,1.1504 5.25,0 12.7988278,12.7989 1.15039,-1.1504 -12.7988272,-12.7989 -6.4003906,0 z m 2.5039063,3.6543 a 1.5351615,1.5351615 0 0 0 -0.3300781,0.1192 l 0.2910156,0.291 a 1.5351615,1.5351615 0 0 1 -0.00195,-0.064 1.5351615,1.5351615 0 0 1 0.041016,-0.3457 z m 1.8417969,1.8379 a 1.5351615,1.5351615 0 0 1 -0.3457032,0.041 1.5351615,1.5351615 0 0 1 -0.070312,0 l 0.2949219,0.295 a 1.5351615,1.5351615 0 0 0 0.1210938,-0.3321 z"
       id="path7544"
       inkscape:connector-curvature="0" />
    <path
       style="fill:#ffffff;fill-opacity:1;fill-rule:evenodd;stroke:none;stroke-width:1px;stroke-linecap:butt;stroke-linejoin:miter;stroke-opacity:1"
       d="m 0,1033.1622 0,6.4 12.8,12.8 6.4,-6.4 -12.8,-12.8 -6.4,0 z m 4,2.4641 a 1.5351615,1.5351615 0 0 1 1.5359375,1.5359 A 1.5351615,1.5351615 0 0 1 4,1038.6966 1.5351615,1.5351615 0 0 1 2.4640625,1037.1622 1.5351615,1.5351615 0 0 1 4,1035.6263 Z"
       id="path7478"
       inkscape:connector-curvature="0" />
  </g>
</svg>
